<svg width="1684" height="748" viewBox="0 0 1684 748" fill="none" xmlns="http://www.w3.org/2000/svg">
<path d="M289.521 580.429C287.316 575.797 280.876 572.515 271.563 571.281C266.473 570.394 268.552 567.508 269.698 565.328C271.263 563.466 271.731 561.623 271.039 560.045C270.954 559.515 271.171 558.929 271.67 558.34C272.168 557.752 272.933 557.179 273.896 556.675C279.092 554.14 284.597 551.767 290.343 549.584C311.993 542.566 334.543 536.865 357.25 532.668C380.293 527.688 403.435 523.434 426.5 519.939C433.686 518.959 433.698 518.895 434.654 522.731C421.968 524.887 409.323 526.836 396.707 529.242C386.695 531.148 376.717 533.608 365.818 536.019C366.702 536.489 367.977 536.757 369.483 536.788C370.989 536.819 372.659 536.612 374.283 536.194C396.017 531.112 417.944 526.931 439.768 523.708L440.214 526.344L436.631 527.582L443.063 528.042L438.832 534.747C435.231 536.577 428.072 537.058 424.081 540.209C417.884 539.656 411.686 542.471 405.534 543.682C398.399 545.235 391.308 546.986 384.304 548.923C382.733 551.016 381.7 552.593 380.324 554.159C375.527 559.664 375.362 559.496 366.522 562.517C356.73 565.865 345.7 567.844 336.986 572.44C336.634 572.602 336.238 572.735 335.826 572.828C335.415 572.922 334.999 572.974 334.61 572.981C328.127 572.681 323.859 574.478 318.987 577.655C314.916 580.324 308.878 580.732 303.58 580.492C299.518 580.308 295.173 580.432 289.526 580.412" fill="#E5F1F3"/>
<path d="M1470.71 235.977C1463.25 239.632 1463.25 239.632 1468.53 242.263C1467.51 245.038 1460.91 248.044 1462.92 250.779C1458.75 253.357 1454.8 255.995 1451.09 258.682C1445.5 263.059 1436.96 264.915 1429.16 267.056C1423.89 268.509 1418.51 270.043 1413.08 271.327C1406.72 272.831 1400.47 274.723 1394.12 276.233C1388.36 277.601 1382.51 278.707 1376.7 279.872C1375.08 280.284 1373.41 280.489 1371.9 280.465C1370.47 280.278 1368.83 280.293 1367.12 280.508C1365.4 280.723 1363.66 281.132 1362.04 281.7C1354.84 283.912 1348.24 283.227 1341.56 283.7C1335.26 283.863 1329.38 283.473 1324.16 282.549C1322.06 282.292 1317.52 281.797 1323.68 279.361C1324.12 279.189 1323.25 278.124 1323.22 277.427C1323.19 276.731 1322.99 275.435 1323.61 275.22C1330.94 272.711 1328.43 271.791 1325.3 270.179C1320.68 267.81 1322.33 266.682 1329.12 261.686C1333.26 258.646 1336.76 255.363 1343.46 253.887C1361.61 249.906 1379.77 245.804 1397.32 246.314C1400.82 246.553 1404.68 246.404 1408.65 245.877C1412.63 245.349 1416.64 244.454 1420.47 243.242C1427.34 240.886 1435.12 239.548 1441.08 236.084C1442.88 235.041 1446.05 234.406 1448.64 233.68C1454.01 232.125 1459.68 231.452 1464.5 231.796C1469.95 232.132 1468.77 234.592 1470.7 235.972" fill="#E5F1F3"/>
<path d="M703.622 555.579C712.624 552.794 720.992 550.511 728.846 547.719C751.375 539.687 774.707 536.797 797.864 532.695C808.255 530.852 816.512 532.18 825.028 532.899C826.502 533.026 826.803 534.272 827.698 535.05L813.872 537.297L829.834 538.437C829.224 540.29 829.109 542.081 829.49 543.768C829.813 544.496 829.666 545.333 829.065 546.194C828.465 547.054 827.432 547.906 826.074 548.662C823.021 550.302 819.63 551.792 816.01 553.085C808.621 551.908 799.391 552.434 790.207 554.556C789.159 556.649 784.162 558.849 785.876 561.142C785.899 561.537 785.705 561.968 785.31 562.397C784.916 562.826 784.333 563.239 783.613 563.601C773.201 568.171 764.237 574.054 750.641 575.772C748.188 576.079 745.107 576.394 743.309 577.237C740.597 578.507 737.657 576.983 735.133 579.317C733.059 581.236 730.74 579.749 728.458 579.958C725.592 580.299 722.757 580.543 719.975 580.687C717.535 580.644 715.188 580.494 712.959 580.236C709.981 574.923 703.895 570.587 695.227 567.605L703.612 555.582" fill="#E5F1F3"/>
<path d="M1661.9 147.148C1663.61 148.528 1665.09 149.612 1666.34 150.785C1666.72 151.264 1666.88 151.81 1666.81 152.397C1666.81 154.019 1661.4 154.791 1661.59 156.617C1661.85 158.052 1661.39 159.626 1660.23 161.227C1659.18 162.5 1654.58 164.165 1654.79 164.901C1655.23 166.544 1654.92 167.485 1650.96 168.602C1650.23 168.81 1649.7 169.728 1649.38 170.299C1647.06 174.531 1647.06 174.527 1637.66 176.216L1642.01 177.633C1638.86 178.069 1635.74 178.403 1632.66 178.632C1629.42 178.711 1626.28 178.661 1623.25 178.481C1620.22 178.161 1616.77 178.263 1613.19 178.779L1623.74 180.201L1623.12 180.868C1620.98 180.894 1618.89 180.863 1616.85 180.775C1606.76 180.093 1596.95 179.111 1586.62 178.71C1577.66 178.563 1570.32 176.782 1565.82 173.667C1568.66 172.761 1572.35 171.973 1569.21 170.483C1565.77 168.854 1568.21 166.813 1573.06 164.295C1568.37 163.483 1562.51 162.851 1569.19 158.273L1582.02 159.19L1583.31 158.269L1572.27 155.056C1576.95 153.126 1581.37 151.589 1586.42 152.316C1587.83 152.517 1590.45 151.663 1592.44 151.471C1601.11 150.636 1601.1 150.668 1604.65 147.313C1605.34 146.673 1605.94 146.03 1606.59 145.386L1608.36 143.625C1612.94 142.207 1617.24 140.943 1621.44 139.558C1630 136.971 1639.1 135.738 1647.03 136.091C1651.13 136.1 1654.63 136.837 1658.74 136.81C1662.56 136.968 1665.51 137.914 1666.99 139.452C1670.74 141.97 1669.76 143.127 1661.88 147.146" fill="#E5F1F3"/>
<path d="M1327.27 472.833C1326.68 469.902 1325.98 467.068 1325.72 464.147C1325.69 463.866 1328.33 463.047 1330.62 462.122C1329.26 461.498 1328.05 460.801 1326.99 460.038C1326.13 459.08 1325.4 458.079 1324.79 457.04C1323.28 455.024 1321.33 453.043 1328.95 450.773C1329.53 450.599 1329.76 449.959 1330.26 449.551C1333.78 446.638 1335.26 443.723 1342.47 441.058C1348.17 438.586 1354.07 436.257 1360.15 434.087C1366.11 432.104 1372.32 430.471 1378.59 429.235C1388.45 427.037 1398.31 426.357 1406.61 427.306C1408.75 427.944 1410.62 428.747 1412.16 429.697L1402.51 433.192C1407.6 434.662 1414.91 434.963 1417.15 438.515L1407.94 442.085L1416.18 442.679C1414.21 446.764 1411.3 450.903 1407.51 455.014C1405.23 457.218 1401.63 459.232 1397.34 460.686C1392.27 462.654 1386.94 464.395 1381.48 465.874C1376.19 467.029 1371.01 468.755 1365.52 469.962C1356.73 471.493 1347.97 472.69 1339.32 473.542C1334.92 473.745 1330.83 473.504 1327.27 472.833Z" fill="#E5F1F3"/>
<path d="M1222.85 195.649L1198.36 193.888C1203.46 195.279 1209.38 196.121 1215.86 196.383C1218.34 196.589 1222.11 196.158 1221.9 197.965C1221.88 199.798 1221.25 201.73 1220.02 203.696C1219.53 204.363 1215.56 205.39 1213.38 205.63C1210.91 205.696 1208.59 205.557 1206.52 205.217C1206.25 206.329 1206.54 207.02 1205.87 207.572C1204.48 208.715 1200.95 210.171 1201.14 210.82C1202.21 214.435 1195.72 217.848 1192.65 221.285C1191.77 222.173 1190.55 223.024 1189.06 223.775C1187.58 224.527 1185.87 225.159 1184.07 225.626C1176.71 227.045 1171.35 230.591 1162.9 232.045C1159.32 231.767 1155.16 232.178 1151.08 233.21C1147.45 234.262 1143.67 234.982 1140 235.324C1136.33 235.665 1132.86 235.62 1129.81 235.191C1126.38 234.76 1122.79 234.483 1119.05 234.361C1118.77 229.696 1118.8 224.864 1118.1 220.187C1117.37 215.291 1125.01 211.43 1132.48 207.842C1137.93 205.226 1142.93 201.545 1150.94 201.095C1162.28 195.195 1175.28 194.932 1187.6 192.227C1195.35 190.952 1202.95 190.467 1209.87 190.805C1215.67 190.657 1219.71 193.177 1224.53 194.507L1222.85 195.649Z" fill="#E5F1F3"/>
<path d="M1003.23 291.502L1028.03 283.821C1032.48 284.002 1036.77 284.349 1040.88 284.86C1042.41 285.105 1042.76 286.556 1042.74 287.615C1042.74 288.017 1040.21 288.857 1038.78 289.524C1041.19 290.699 1045.16 291.571 1040.88 294.655C1039.96 295.241 1039.42 295.899 1039.36 296.5C1040.04 297.249 1040.25 298.148 1039.95 299.117C1039.66 300.087 1038.87 301.099 1037.67 302.065C1032.88 305.732 1026.77 309.117 1019.79 311.974C1005.54 317.245 990.059 321.142 974.666 323.337C965.282 324.537 956.024 325.305 947.023 325.631C944.718 325.704 942.673 325.442 941.125 324.876C939.576 324.31 938.586 323.461 938.269 322.429C937.312 318.446 935.86 314.56 935.218 310.508C934.975 309.044 935.773 307.395 937.502 305.79C942.087 301.319 949.322 297.204 957.97 294.148C966.618 291.091 976.143 289.283 984.916 289.033C988.194 288.556 991.398 288.359 994.375 288.453C997.691 289.254 1000.66 290.277 1003.23 291.505" fill="#E5F1F3"/>
<path d="M476.689 256.257L484.166 255.997C475.255 255.351 477.173 249.816 470.742 248.118C470.243 247.954 469.873 247.719 469.658 247.43C469.443 247.141 469.388 246.805 469.498 246.446C469.607 246.087 469.878 245.713 470.292 245.352C470.705 244.991 471.251 244.65 471.89 244.356C475.844 243.014 475.086 241.852 474.939 240.922C474.654 239.881 475.132 238.687 476.305 237.512C477.477 236.337 479.284 235.242 481.464 234.384C495.107 228.185 508.397 221.731 525.126 218.706C534.452 214.276 545.166 213.56 555.186 211.124C560.489 210.146 565.773 209.479 570.912 209.14C573.722 211.221 569.993 213.675 564.205 216.553C566.472 216.658 568.926 216.536 571.448 216.192C574.297 215.496 574.2 216.454 574.086 216.956C573.075 219.3 572.97 221.547 573.776 223.576C574.103 224.058 572.593 225.267 571.41 226.004C569.321 227.318 566.603 228.374 567.298 230.048C567.488 230.523 564.862 231.836 563.299 232.663C550.618 240.008 534.791 245.951 518.099 249.636C515.251 250.366 512.466 251.236 509.799 252.228C502.082 254.792 494.51 254.83 487.074 256.707C485.032 257.227 482.941 257.463 481.088 257.383C479.235 257.303 477.708 256.91 476.718 256.259" fill="#E5F1F3"/>
<path d="M895.828 668.057C897.733 668.372 899.644 668.681 901.737 669.037C900.705 669.452 900.055 669.84 899.489 669.917C890.791 671.275 882.152 672.287 873.663 672.941C868.343 673.195 863.071 673.626 861.926 670.792C861.152 668.864 852.185 670.115 856.493 666.214C853.022 663.976 856.501 661.046 859.687 658.23C856.742 657.484 853.99 656.613 851.448 655.623C848.916 654.429 850.915 651.343 855.77 648.232C856.88 647.52 858.865 646.9 859.43 646.218C863.812 640.926 863.733 640.93 873.284 639.26C878.043 638.309 882.808 637.481 887.556 636.778C890.189 636.492 892.882 635.932 895.453 635.137C898.025 634.342 900.414 633.331 902.458 632.171C905.732 630.394 909.608 628.91 913.717 627.861C917.827 626.811 922.034 626.23 925.939 626.174C929.5 626.183 932.595 626.714 934.885 627.71C937.174 628.706 938.57 630.128 938.917 631.82L920.531 636.418C925.952 636.81 929.631 637.042 933.246 637.338C936.86 637.635 935.875 637.81 935.26 641.211C934.819 643.645 929.278 646.811 933.646 648.545L927.351 655.383C923.486 659.594 918.98 663.252 908.738 664.602C904.341 665.486 899.992 666.651 895.824 668.061" fill="#E5F1F3"/>
<path d="M1222.02 102.483C1224.65 100.528 1228.29 98.8239 1232.38 97.6331C1236.46 96.4423 1240.77 95.8307 1244.62 95.8924C1253.3 95.3794 1261.69 95.3625 1269.62 95.8421C1279.7 97.0233 1290.28 97.7689 1301.25 98.0726C1306.54 98.227 1308.49 100.296 1313.29 100.594C1314.55 100.683 1315.98 101.791 1315.48 102.235C1311.63 105.673 1316.77 107.795 1313.14 111.427C1310.74 113.829 1312.41 116.509 1312.24 119.389C1304.74 121.703 1304.98 127.783 1292.2 129.174C1286.16 127.233 1276.06 130.278 1267.22 130.925C1265.98 131.016 1264.41 131.564 1263.4 131.5C1251.3 130.698 1239.29 129.82 1226.21 128.888L1233.27 126.503C1230.09 126.648 1227.95 126.439 1226.71 126.919C1225.47 127.399 1225.02 128.688 1223.72 129.457C1223.13 129.805 1221.18 129.878 1220.07 129.839C1219.55 129.825 1219.06 129.151 1219.36 128.942C1221.58 127.355 1224 125.809 1226.56 124.109L1216.54 119.709L1221.15 115.723C1215.71 117.389 1216.68 115.097 1215.33 114.151C1213.87 113.251 1212.28 112.41 1210.57 111.629C1215.67 107.459 1222.2 106.235 1229.88 105.579L1222 102.5" fill="#E5F1F3"/>
<path d="M290.048 446.341C293.638 442.968 298.569 439.857 293.393 437.729C302.828 435.425 307.859 435.435 310.252 438.631C312.662 440.614 314.518 442.801 315.79 445.158C316.361 447.54 321.614 448.77 323.633 450.91C324.718 452.767 325.268 454.77 325.272 456.879L319.206 458.781L318.347 455.414L316.575 455.651L313.189 460.425C311.51 460.784 307.864 461.083 305.69 462.122C292.614 467.863 277.851 472.36 262.776 475.194C257.751 476.02 252.744 476.692 247.788 477.204C235.385 479.162 232.896 479.718 224.868 478.283C218.366 477.562 213.337 475.707 210.482 472.977C209.693 471.617 207.825 470.611 205.17 470.117C198.679 469.498 199.648 467.412 202.964 464.48C203.897 463.642 204.586 462.784 205.002 461.94C207.694 456.601 208.495 456.088 218.258 454.026C232.576 451.398 246.852 449.589 260.75 448.639C270.668 447.669 280.452 447.084 290.047 446.348" fill="#E5F1F3"/>
<path d="M494.872 397.251C501.561 393.879 508.87 390.828 516.59 388.185C531.522 383.552 546.225 378.484 561.378 374.324C576.947 369.566 593.042 365.754 609.16 363.009C613.838 363.695 604.897 366.95 610.727 367.444C612.391 367.585 611.72 370.007 612.041 371.401C612.84 374.86 611.74 376.678 605.037 378.671C599.092 380.528 593.861 383.121 590.136 386.056C583.795 390.541 574.293 393.264 566.463 396.927C557.814 400.526 548.631 403.703 539.141 406.38C534.529 408.121 529.801 409.752 524.983 411.264C520.029 412.646 514.906 413.553 509.979 413.921C508.379 413.84 506.959 413.584 505.8 413.168C504.64 412.753 503.766 412.186 503.227 411.501C501.784 409.974 498.418 409.061 499.393 406.641C499.963 405.241 497.088 405.239 495.138 404.816C492.897 404.333 490.201 403.713 495.846 401.48C499.785 399.919 498.075 398.239 494.903 397.226" fill="#E5F1F3"/>
<path d="M427.118 633.455C440.037 626.474 453.417 624.03 466.542 621.59C478.08 619.417 489.619 617.613 501.07 616.191C512.489 614.791 524.928 611.843 535.062 614.279C524.481 618.527 513.637 617.335 501.612 621.277C514.296 621.303 526.941 618.549 541.156 617.741L532.653 621.691C534.527 622.032 536.459 622.406 538.361 622.763L534.28 629.063C531.929 629.542 528.558 630.148 525.229 630.919C512.253 633.924 512.295 633.927 501.303 640.291C500.021 640.989 498.63 641.642 497.156 642.239C486.507 647.177 474.203 651.004 461.639 653.285C455.711 654.285 449.871 654.747 444.443 654.646C443.274 654.655 441.99 654.865 440.791 655.243C440.264 655.425 439.696 655.552 439.142 655.61C438.589 655.668 438.069 655.655 437.634 655.573C437.199 655.491 436.864 655.343 436.662 655.143C436.46 654.942 436.398 654.697 436.481 654.431C436.442 651.312 431.876 649.638 430.983 646.808C430.72 646.286 430.189 645.844 429.426 645.512C428.663 645.181 427.686 644.968 426.561 644.888C425.024 644.277 424.08 643.379 423.841 642.299C423.602 641.22 424.078 640.003 425.212 638.794C426.707 637.779 430.862 637.35 429.733 635.743C429.002 634.925 428.135 634.154 427.138 633.435" fill="#E5F1F3"/>
<path d="M863.635 485.575L866.406 481.539L859.43 482.743L851.749 471.936C852.451 471.346 853.056 470.746 853.557 470.141C858.454 462.71 870.761 458.404 883.812 455.015C894.107 452.328 904.595 450.21 915.017 448.714C921.913 447.405 928.616 447.29 933.831 448.391L903.325 452.789L902.874 453.88C904.465 453.904 906.122 453.843 907.819 453.697C914.794 452.789 921.809 451.688 928.759 450.857C931.833 450.49 936.157 449.537 934.31 452.616C933.742 453.566 936.8 454.363 938.221 455.219C939.471 455.97 940.764 456.702 941.779 457.3C939.232 460.362 934.417 460.05 930.545 461.794L941.997 461.053L943.518 464.97C941.229 465.682 937.799 466.596 941.102 467.908C944.662 469.331 944.856 471.072 939.186 473.446C938.67 473.663 937.958 474.138 938.036 474.311C939.494 477.655 933.201 479.112 928.365 480.265C916.799 482.621 905.206 484.283 893.891 485.206C891.209 485.519 884.999 486.174 888.213 482.713C888.408 482.519 886.6 482.24 885.713 481.984C884.677 482.679 882.567 483.708 882.786 484.017C883.115 484.243 883.221 484.552 883.085 484.893C882.949 485.234 882.58 485.587 882.038 485.894C881.496 486.201 880.813 486.444 880.1 486.584C879.388 486.723 878.689 486.751 878.116 486.662C874.355 485.149 866.88 487.498 863.611 485.566" fill="#E5F1F3"/>
<path d="M1182.1 489.821L1174.73 492.112C1177.77 492.553 1180.26 492.919 1183 493.319C1181.35 496.021 1179.9 498.811 1177.86 501.612C1176.63 503.326 1174.92 505.035 1172.78 506.684C1171.16 507.921 1167.92 506.627 1165.19 508.959C1163.42 510.464 1157.59 511.301 1153.26 512.151C1149.75 512.843 1145.38 511.116 1142.36 514.481C1138.53 514.328 1134.68 514.177 1130.83 514.027C1130.45 514.02 1130.06 514.022 1129.66 514.035L1103.1 522.293C1102.18 523.34 1101.12 524.381 1099.92 525.407C1097.87 526.959 1093.34 528.46 1092.4 527.522C1090.31 525.437 1084.38 528.48 1082.49 526.969C1083.39 523.464 1086.46 519.762 1091.32 516.34C1086.4 517.066 1082.11 517.696 1076.72 518.486C1076.26 517.766 1074.41 516.727 1075.25 515.895C1080.59 510.638 1083.73 504.938 1095.14 500.733C1098.09 499.475 1101.2 498.335 1104.42 497.334C1111.76 495.445 1119.2 493.812 1126.62 492.144C1130.27 491.32 1133.97 490.658 1137.64 489.878C1143.28 488.679 1148.85 489.558 1154.6 487.009C1159.31 487.346 1164.67 486.919 1170.04 485.78C1171.75 485.501 1173.42 485.386 1174.96 485.439C1176.5 485.493 1177.88 485.716 1179 486.093C1180.13 486.471 1180.99 486.995 1181.52 487.636C1182.05 488.276 1182.25 489.018 1182.1 489.818" fill="#E5F1F3"/>
<path d="M1499 339.455L1493.34 345.201C1491.15 347.422 1489.43 349.874 1483.25 349.969C1482.7 350.063 1482.16 350.22 1481.68 350.425C1481.2 350.631 1480.79 350.879 1480.49 351.144C1478.59 353.827 1473.52 354.187 1469.99 355.657C1460.45 359.636 1451.16 359.647 1442.08 360.164C1436.93 360.455 1434.45 359.383 1434.24 356.219C1434 352.672 1435.86 348.39 1431.78 345.666C1433.68 343.665 1429.76 341.628 1436.48 339.62C1437.57 339.194 1438.45 338.631 1438.94 338.037C1446.41 330.16 1459.24 325.828 1473.94 322.49C1481.27 320.401 1488.85 318.945 1496.24 318.206C1499.3 318.079 1502.28 318.067 1505.18 318.17C1506.12 318.202 1507.4 318.622 1507.27 319.011C1506.17 322.306 1508.66 324.962 1507.6 328.164C1506.37 331.886 1503.43 335.749 1499 339.455Z" fill="#E5F1F3"/>
<path d="M831.448 254.789L820.042 257.16C823.769 257.749 825.029 257.963 826.325 258.148C830.628 258.754 830.629 258.747 827.994 262C827.667 262.409 826.969 263.021 827.214 263.191C828.47 263.912 828.957 264.941 828.59 266.101C828.223 267.26 827.026 268.478 825.205 269.543C821.31 272.152 816.623 274.536 811.413 276.556C791.522 283.163 770.259 287.638 749.679 289.551C746.055 289.654 742.661 289.442 739.642 288.924L742.595 286.511C738.261 286.375 735.731 285.637 737.454 282.878C737.623 282.373 737.534 281.902 737.195 281.508C736.857 281.114 736.279 280.807 735.512 280.614C730.791 279.985 736.078 277.314 734.476 276.137C740.615 274.877 737.829 271.773 742.887 270.208C747.713 268.723 752.46 266.559 757.243 265.693C767.818 263.659 778.39 262.142 788.777 261.169C790.981 261.069 793.295 260.745 795.581 260.216C797.868 259.687 800.08 258.965 802.086 258.091C808.182 255.233 815.346 253.101 822.551 252.002C828.779 251.091 828.788 251.032 831.448 254.789Z" fill="#E5F1F3"/>
<path d="M929.344 381.21C930.775 381.225 932.12 381.341 933.345 381.555C934.142 381.759 933.886 382.696 934.703 382.842C935.52 382.988 937.332 382.445 938.415 382.523C939.358 382.592 939.781 383.415 940.621 383.319C942.267 383.093 943.926 382.669 945.442 382.089C946.569 381.525 947.554 380.902 948.355 380.245C945.533 380.462 943.258 380.635 940.965 380.813C945.609 378.75 950.002 376.408 954.74 377.929L949.567 380.705C956.197 381.571 956.193 377.666 960.906 376.501C958.431 378.523 959.595 380.074 957.056 382.105C955.863 383.062 958.271 384.554 959.295 386.203L942.156 392.459L948.826 393.665L942.824 403.147C937.547 404.504 932.963 405.507 928.564 406.83C924.753 407.98 921.283 409.686 917.456 410.783C906.778 413.527 895.848 415.205 885.476 415.694C881.728 415.993 876.056 416.212 878.617 412.705C872.711 412.278 875.278 408.74 873.101 406.896C871.942 405.604 871.944 403.962 873.108 402.246C874.271 400.53 876.525 398.843 879.492 397.467C889.109 392.621 900.268 388.653 911.937 385.931C917.562 384.405 923.192 382.642 929.338 381.21" fill="#E5F1F3"/>
<path d="M681.99 454.263L676.713 457.367C686.458 458.314 695.002 452.824 704.991 452.686C703.439 453.613 701.732 454.487 699.901 455.293C696.817 456.339 693.679 457.323 690.5 458.24C694.236 458.362 698.478 457.767 702.464 456.56C706.543 460.562 706.543 460.562 702.456 464.611C695.307 466.206 688.292 468.237 681.626 470.643C674.93 473.555 668.013 474.061 661.385 476.073C654.752 477.888 647.95 479.281 641.207 480.206C637.386 480.92 633.634 481.113 630.417 480.761C626.94 480.152 622.237 478.855 622.656 477.29C623.342 474.713 619.649 475.04 617.725 474.074C616.158 473.5 615.078 472.678 614.58 471.68C614.081 470.682 614.178 469.538 614.863 468.348C615.968 466.766 615.686 464.771 617.758 463.7C622.745 461 628.454 458.619 634.574 456.688C645.983 453.407 657.556 450.43 669.22 447.777C672.121 447.112 675.384 447.756 679.75 447.803L673.667 450.01C680.207 449.962 679.334 453.029 681.996 454.264" fill="#E5F1F3"/>
<path d="M178.344 373.975L184.995 370.853C177.238 368.772 177.111 368.387 184.591 364.432C178.882 365.205 174.314 365.827 169.347 366.501L169.189 362.902L186.993 357.342C182.849 355.578 176.568 359.156 171.596 358.399C174.117 354.965 180.166 353.306 185.876 351.637C188.992 350.725 192.435 350.367 195.514 349.41C209.195 345.216 223.133 341.444 237.212 338.124C238.488 337.786 239.741 337.402 240.957 336.975C244.096 335.709 247.51 334.692 250.992 333.984C254.474 333.277 257.952 332.894 261.215 332.858C261.461 335.505 256.019 336.511 251.797 337.995C255.127 340.055 259.706 336.177 263.232 336.62C267.551 337.092 257.129 341.427 265.627 340.747L258.824 347.579C254.419 349.353 250.002 351.165 245.534 352.927C240.736 354.423 236.084 356.11 231.647 357.961C227.354 360.137 221.07 361.343 215.831 363.141C212.406 364.32 208.678 364.957 205.616 367.017C203.403 368.506 198.406 369.028 196.622 371.403C196.125 372.064 192.855 373.087 191.033 373.307C186.726 373.676 182.487 373.899 178.344 373.975Z" fill="#E5F1F3"/>
<path d="M1144.81 434.741C1142.34 436.921 1142.86 438.587 1138.23 440.414L1139.21 437.729C1133.84 438.152 1128.41 438.664 1123.11 438.945C1121.76 439.018 1119.74 438.498 1119.85 438.005C1120.46 435.317 1116.27 434.169 1115.54 431.976C1115.44 430.878 1115.97 429.675 1117.08 428.479C1117.54 427.891 1119.8 427.321 1120.28 426.733C1120.61 425.941 1120.64 425.182 1120.37 424.493C1128.46 423.897 1128.69 423.973 1135.67 419.842C1139.86 417.368 1144.98 417.159 1149.68 415.546L1146.13 413.953C1148.02 413.382 1150.22 412.366 1151.32 412.445C1165.02 413.462 1165.33 413.478 1177.04 410.59C1172.81 408.184 1165.44 411.684 1159.17 411.453C1160.36 410.543 1161.55 409.151 1162.44 409.028C1171.23 407.912 1180.5 405.909 1186.51 409.078C1188.38 410.06 1189.63 410.305 1187.91 412.089C1186.97 413.285 1186.64 414.464 1186.94 415.511C1187.29 418.249 1187.98 420.916 1188.59 423.864L1184.69 424.729C1179.86 426.672 1184.85 429.418 1176.98 429.236C1174.74 429.185 1177.19 432.204 1171.58 431.803C1169.42 431.648 1165.04 433.697 1161.93 434.665L1157.67 433.113L1155.54 433.974L1159.92 436.231C1155.28 437.121 1152.59 437.642 1149.06 438.321L1144.81 434.741Z" fill="#E5F1F3"/>
<path d="M861.246 199.918L874.126 196.634L869.763 194.582C874.111 192.479 879.15 190.799 884.363 189.714C895.367 187.173 906.486 185.392 917.555 182.807C920.993 182.104 924.428 181.736 927.632 181.728C930.835 181.72 933.733 182.072 936.13 182.76C934.275 185.745 927.487 185.935 923.498 188.249L934.688 189.052L924.919 202.34C914.693 205.837 903.771 208.366 893.003 209.73C886.99 210.509 880.996 212.587 874.673 212.895C872.183 213.016 870.792 211.23 867.189 213.064C866.444 212.825 865.742 212.562 865.085 212.274C870.301 209.262 863.118 207.604 867.492 204.659C867.779 204.468 866.202 203.78 865.344 203.394C864.268 203.043 863.264 202.65 862.337 202.218C861.76 201.517 861.389 200.75 861.229 199.934" fill="#E5F1F3"/>
<path d="M596.863 302.598L583.894 304.363C586.151 305.172 587.189 305.541 588.283 305.936C587.686 306.199 587.003 306.648 586.528 306.681C582.13 306.954 577.507 307.797 573.112 309.127C570.304 309.902 567.429 310.512 564.568 310.939C562.164 311.282 559.746 311.897 557.528 312.733C555.309 313.568 553.359 314.597 551.849 315.729L554.552 317.019L546.357 320.166C544.933 320.064 544.235 320.105 544.209 320.012C544.017 318.766 543.926 317.495 543.817 316.335C540.37 316.438 537.28 316.501 532.623 316.615L540.993 312.441L534.284 309.209L536.731 306.087L531.657 305.722C531.241 305.069 531.156 304.324 531.408 303.533C531.661 302.742 532.245 301.923 533.125 301.125C534.005 300.327 535.163 299.567 536.526 298.893C537.89 298.218 539.431 297.643 541.054 297.203C549.016 294.541 556.59 291.44 565.558 288.78L566.284 293.025C571.7 292.621 577.326 291.649 582.788 290.173C588.739 288.866 594.725 287.826 600.656 287.067C602.914 289.224 598.394 290.476 595.395 292.094C596.5 292.25 597.382 292.63 598.435 292.491C604.863 291.584 606.858 292.321 604.381 295.037C602.054 297.591 599.34 300.121 596.863 302.598Z" fill="#E5F1F3"/>
<path d="M656.95 135.53L645.655 138.011C646.979 138.412 647.637 138.865 648.586 138.851C653.237 138.713 657.973 138.452 663.336 138.182L659.559 141.935L652.372 143.037L661.903 143.717C661.532 144.361 661.329 144.994 661.298 145.6C661.64 146.694 663.101 148.503 662.696 148.648C658.604 150.114 658.046 152.238 655.338 153.757C653.527 154.978 651.125 156.017 648.49 156.717C645.856 157.416 643.132 157.739 640.727 157.637C639.092 157.52 638.491 156.183 636.951 156.266C635.686 156.332 633.772 157.971 632.01 158.377C631.132 158.534 630.268 158.59 629.497 158.538C628.726 158.487 628.072 158.33 627.595 158.083C626.863 156.248 623.369 156.383 620.333 156.287C618.675 156.33 617.304 156.039 616.512 155.474C615.719 154.91 615.567 154.118 616.089 153.267C617.031 151.281 615.265 150.673 612.356 150.034C610.264 149.695 608.866 148.892 608.456 147.793C608.045 146.694 608.654 145.385 610.155 144.139C611.325 143.102 612.26 142.044 612.937 140.99C614.502 138.353 618.875 135.199 623.069 134.65C633.339 133.283 644.025 131.016 653.268 132.24C656.866 132.718 656.673 134.062 656.95 135.53Z" fill="#E5F1F3"/>
<path d="M789.666 344.442L781.779 349.448C782.856 350.104 784.518 350.464 786.505 350.474C788.493 350.484 790.694 350.143 792.766 349.503C794.151 351.966 787.301 353.045 785.737 355.249C787.508 355.589 789.345 355.955 791.136 356.318C792.689 358.244 785.209 359.339 785.988 361.588C786.767 363.837 780.048 363.966 777.569 365.695C775.732 366.717 773.485 367.543 771.124 368.064C763.605 370.053 755.93 369.89 748.256 372.747C746.424 373.431 743.119 372.758 739.637 372.686C746.229 369.383 736.459 368.446 742.193 365.226C740.21 363.964 733.766 364.554 736.918 360.675L744.735 359.159L740.586 357.232C741.803 355.027 746.076 354.283 748.868 353.731C757.926 351.969 766.776 349.186 774.581 345.647C775.775 345.048 777.128 344.539 778.555 344.15C779.981 343.761 781.45 343.502 782.868 343.389C784.286 343.276 785.622 343.311 786.792 343.492C787.962 343.673 788.941 343.997 789.666 344.442Z" fill="#E5F1F3"/>
<path d="M1175.87 361.563L1172.56 352.634L1177.94 347.269C1185.47 345.569 1193.31 345.403 1200.89 342.644C1208.77 342.867 1216.39 340.295 1224.19 338.162C1226.7 337.463 1229.73 337.853 1233.19 337.749C1232.73 338.703 1231.78 339.616 1232.11 340.141C1235.45 345.645 1226.16 349.947 1216.6 353.432C1208.23 356.396 1199.41 358.842 1190.47 360.683C1185.41 361.397 1180.47 361.695 1175.87 361.563" fill="#E5F1F3"/>
</svg>
