<svg width="110" height="28" viewBox="0 0 110 28" fill="none" xmlns="http://www.w3.org/2000/svg">
<path d="M28.9109 10.5053H40.0396V12.5766H35.6531V24.2525H33.2515V12.5766H28.893L28.9109 10.5053ZM39.5621 14.2999H41.6157V16.2246H41.6526C41.7317 15.9406 41.8621 15.6734 42.0374 15.4362C42.2246 15.1688 42.4535 14.9333 42.7154 14.7385C42.9773 14.5184 43.2751 14.3448 43.5956 14.2252C43.9036 14.096 44.2337 14.0283 44.5676 14.0258C44.8239 14.0258 45.0073 14.0438 45.099 14.0438C45.1954 14.065 45.2935 14.0774 45.3921 14.0806V16.1868C45.235 16.1519 45.0758 16.1272 44.9156 16.113C44.7576 16.0916 44.5985 16.0793 44.439 16.0761C44.0791 16.0748 43.723 16.1499 43.3943 16.2964C43.0663 16.4493 42.7732 16.6678 42.5329 16.9383C42.2766 17.2557 42.0782 17.6157 41.9467 18.0019C41.7924 18.475 41.718 18.9705 41.7264 19.4681V24.1977H39.5262L39.5621 14.2999ZM55.475 24.2535H53.3177V22.858H53.2808C53.0002 23.3679 52.5805 23.7875 52.0705 24.0681C51.5778 24.3653 51.014 24.5237 50.4386 24.5266C49.923 24.5766 49.4028 24.5157 48.9127 24.3481C48.4227 24.1805 47.9742 23.91 47.5973 23.5548C46.9497 22.7206 46.6359 21.6752 46.717 20.6223V14.2979H48.9172V20.402C48.846 21.0619 49.0296 21.7241 49.4307 22.253C49.6122 22.4412 49.8325 22.5879 50.0762 22.6829C50.3198 22.7779 50.5812 22.8189 50.8423 22.8032C51.239 22.8154 51.6334 22.7402 51.9978 22.5829C52.2901 22.4563 52.5479 22.2615 52.7494 22.0148C52.9508 21.7617 53.0947 21.4678 53.1711 21.1536C53.2623 20.8005 53.3055 20.4367 53.2997 20.0721V14.2979H55.5V24.2515L55.475 24.2535ZM59.2155 21.0639C59.2246 21.3313 59.2955 21.593 59.4228 21.8284C59.5502 22.0638 59.7304 22.2665 59.9492 22.4204C60.4112 22.6865 60.9377 22.8196 61.4706 22.8052C61.7042 22.8031 61.9373 22.7848 62.1684 22.7504C62.4196 22.7197 62.6661 22.6581 62.9021 22.567C63.1244 22.4885 63.321 22.3506 63.4704 22.1683C63.6226 21.9769 63.6941 21.7338 63.6698 21.4905C63.6668 21.3593 63.6376 21.23 63.5841 21.1102C63.5305 20.9904 63.4535 20.8825 63.3577 20.7928C63.1391 20.6067 62.8912 20.4581 62.624 20.3532C62.29 20.233 61.9465 20.141 61.5972 20.0781C61.2123 20.0043 60.8275 19.9136 60.4238 19.8219C60.02 19.7302 59.6173 19.6226 59.2275 19.492C58.8575 19.3746 58.5102 19.1949 58.2006 18.9607C57.897 18.7424 57.6515 18.4528 57.4858 18.1175C57.2904 17.7253 57.1958 17.2905 57.2107 16.8526C57.1882 16.3685 57.3286 15.8909 57.6095 15.496C57.8729 15.1287 58.2179 14.8274 58.6173 14.6159C59.0417 14.3866 59.4996 14.2258 59.9742 14.1395C60.4398 14.0537 60.9123 14.0106 61.3858 14.0109C61.8794 14.0085 62.3716 14.064 62.8523 14.1763C63.3034 14.2732 63.7324 14.4533 64.1174 14.7076C64.4989 14.9483 64.8191 15.2746 65.0525 15.6605C65.3168 16.0885 65.4798 16.5713 65.529 17.0719H63.2361C63.2093 16.8508 63.1306 16.6392 63.0064 16.4544C62.8821 16.2695 62.7159 16.1167 62.5213 16.0084C62.1139 15.8188 61.6686 15.7247 61.2193 15.7333C61.0728 15.7333 60.8714 15.7512 60.669 15.7701C60.4631 15.7994 60.2604 15.8485 60.0639 15.9167C59.8858 15.9877 59.7237 16.0938 59.5874 16.2286C59.5205 16.2995 59.4684 16.383 59.4342 16.4742C59.4 16.5654 59.3843 16.6626 59.388 16.7599C59.3827 16.8807 59.4047 17.0011 59.4523 17.1122C59.5 17.2233 59.572 17.3223 59.6631 17.4018C59.8819 17.5831 60.13 17.7257 60.3969 17.8234C60.7309 17.9436 61.0743 18.0356 61.4237 18.0985C61.8085 18.1723 62.2123 18.264 62.62 18.3547C63.0278 18.4454 63.4086 18.5541 63.7934 18.6846C64.165 18.7982 64.5129 18.9782 64.8202 19.2159C65.1202 19.4363 65.3702 19.7175 65.554 20.0412C65.7475 20.4209 65.8421 20.8432 65.8291 21.2692C65.8482 21.7987 65.7094 22.3219 65.4304 22.7723C65.158 23.1789 64.8018 23.5225 64.3856 23.78C63.9399 24.0394 63.4581 24.2309 62.956 24.3482C62.4442 24.4624 61.9221 24.5238 61.3978 24.5316C60.81 24.5364 60.2242 24.4623 59.6561 24.3113C59.1571 24.1801 58.6848 23.9629 58.2604 23.6694C57.875 23.3851 57.5613 23.0148 57.3443 22.5879C57.107 22.1089 56.9816 21.5824 56.9774 21.0479H59.1996V21.0659L59.2155 21.0639ZM66.4572 14.2999H68.125V11.2937H70.3253V14.284H72.3052V15.9156H70.3253V21.2313C70.3267 21.4335 70.339 21.6355 70.3622 21.8364C70.3801 21.9833 70.4237 22.126 70.4908 22.258C70.5681 22.3715 70.6764 22.4604 70.8028 22.5141C70.991 22.5802 71.1896 22.6113 71.389 22.6059C71.5421 22.609 71.6952 22.603 71.8476 22.5879C72.0017 22.5723 72.1549 22.5477 72.3062 22.5141V24.2186C72.0679 24.2555 71.8296 24.2734 71.5914 24.2924C71.3544 24.3234 71.1154 24.3357 70.8766 24.3292C70.4057 24.3438 69.9353 24.288 69.4809 24.1638C69.1714 24.0737 68.8882 23.9103 68.6554 23.6873C68.4555 23.4641 68.318 23.1922 68.2566 22.8989C68.1816 22.5379 68.1385 22.171 68.128 21.8025V15.9366H66.4602V14.3049L66.4572 14.2999ZM73.8454 14.2999H75.917V15.6565H75.9539C76.2289 15.1083 76.681 14.6689 77.237 14.4096C77.799 14.1493 78.4121 14.0178 79.0314 14.0248C79.7396 14.0024 80.4431 14.1468 81.0851 14.4464C81.6527 14.7026 82.1497 15.0925 82.5336 15.5827C82.9313 16.0813 83.2243 16.6549 83.395 17.2692C83.7733 18.5727 83.7861 19.955 83.4319 21.2652C83.2668 21.8622 83 22.4263 82.6433 22.9328C82.2917 23.4152 81.8339 23.8104 81.3054 24.088C80.7166 24.3919 80.0608 24.5431 79.3983 24.5276C79.0786 24.5243 78.7597 24.4936 78.4452 24.4359C78.1301 24.3806 77.8225 24.2883 77.5291 24.1608C77.2376 24.0345 76.9659 23.8666 76.7225 23.6624C76.4771 23.4665 76.2664 23.2307 76.0995 22.9647H76.0626V27.9325H73.8644V14.2999H73.8454ZM81.5267 19.2837C81.5302 18.8431 81.4683 18.4044 81.3433 17.9819C81.2379 17.5791 81.0577 17.1997 80.812 16.8636C80.5806 16.5457 80.2877 16.2776 79.9506 16.0751C79.5851 15.8727 79.1721 15.7715 78.7543 15.7821C78.3538 15.7561 77.9531 15.8295 77.5878 15.9957C77.2226 16.162 76.9041 16.4159 76.6607 16.735C76.1653 17.4965 75.9212 18.3941 75.9629 19.3016C75.9543 19.7733 76.0162 20.2436 76.1463 20.6971C76.255 21.0955 76.442 21.4683 76.6966 21.7935C76.9323 22.1 77.2329 22.3505 77.5769 22.5271C77.9464 22.7174 78.3577 22.812 78.7732 22.8022C79.2154 22.8148 79.6527 22.707 80.0383 22.4902C80.375 22.2873 80.6679 22.0193 80.8997 21.7018C81.128 21.3626 81.2897 20.9831 81.3762 20.5834C81.4726 20.1574 81.5244 19.7225 81.5307 19.2857L81.5267 19.2837ZM85.3948 10.5033H87.595V12.5745H85.3948V10.5033ZM85.3948 14.2979H87.595V24.2515H85.3948V14.2979ZM89.556 10.5033H91.7562V24.2505H89.556V10.5033ZM98.4655 24.5256C97.7367 24.5421 97.0124 24.4063 96.3391 24.1269C95.7465 23.8752 95.2103 23.5075 94.762 23.0454C94.3263 22.5626 93.9953 21.9949 93.79 21.3779C93.5588 20.6991 93.4412 19.9868 93.442 19.2697C93.4317 18.5568 93.5496 17.8478 93.79 17.1766C93.9996 16.5615 94.33 15.9945 94.762 15.509C95.202 15.0372 95.7404 14.668 96.3391 14.4275C97.015 14.1568 97.7375 14.0213 98.4655 14.0288C99.1944 14.0123 99.9186 14.1481 100.592 14.4275C101.188 14.6726 101.726 15.0412 102.169 15.509C102.605 15.9918 102.936 16.5596 103.141 17.1766C103.373 17.8501 103.49 18.5575 103.489 19.2697C103.5 19.9876 103.383 20.7017 103.141 21.3779C102.924 21.9896 102.595 22.5552 102.169 23.0454C101.729 23.5173 101.191 23.8865 100.592 24.1269C99.9174 24.3998 99.1952 24.536 98.4675 24.5276L98.4655 24.5256ZM98.4655 22.7843C98.9072 22.7923 99.3433 22.6847 99.7307 22.4723C100.082 22.2738 100.383 21.9981 100.611 21.6659C100.848 21.3268 101.022 20.948 101.124 20.5476C101.344 19.7126 101.344 18.8348 101.124 17.9999C101.025 17.5981 100.851 17.2187 100.611 16.8815C100.377 16.5588 100.077 16.2899 99.7307 16.0931C99.3425 15.8828 98.907 15.7754 98.4655 15.7811C98.0239 15.7732 97.5878 15.8807 97.2004 16.0931C96.8544 16.2905 96.5543 16.5592 96.3202 16.8815C96.0802 17.2187 95.906 17.5981 95.8067 17.9999C95.5867 18.8348 95.5867 19.7126 95.8067 20.5476C95.906 20.9493 96.0802 21.3287 96.3202 21.6659C96.5532 21.994 96.8533 22.2688 97.2004 22.4723C97.5857 22.692 98.0243 22.8006 98.4675 22.7863L98.4655 22.7843ZM104.148 14.2979H105.816V11.2917H108.016V14.282H109.996V15.9137H108.019V21.2294C108.021 21.4315 108.033 21.6335 108.056 21.8344C108.074 21.9813 108.117 22.124 108.185 22.256C108.262 22.3696 108.37 22.4585 108.497 22.5122C108.685 22.5782 108.883 22.6093 109.083 22.6039C109.236 22.6071 109.389 22.6011 109.541 22.5859C109.696 22.5703 109.849 22.5457 110 22.5122V24.2166C109.762 24.2535 109.523 24.2714 109.285 24.2904C109.048 24.3214 108.809 24.3337 108.57 24.3272C108.1 24.3418 107.629 24.286 107.175 24.1618C106.865 24.0717 106.582 23.9083 106.349 23.6853C106.149 23.4621 106.012 23.1902 105.95 22.8969C105.875 22.5359 105.832 22.169 105.822 21.8005V15.9346H104.151V14.3029L104.148 14.2979Z" fill="black"/>
<path d="M26.3448 10.5063H16.2798L13.1814 0.9375L10.069 10.5063L0 10.4884L8.13992 16.4091L5.02352 25.9779L13.1634 20.0572L21.3033 25.9779L18.2049 16.4091L26.3448 10.5063Z" fill="#00B67A"/>
<path d="M18.9018 18.571L18.2039 16.4081L13.1814 20.0562L18.9018 18.571Z" fill="#005128"/>
</svg>
